<svg width="24" height="20" viewBox="0 0 24 20" fill="none" xmlns="http://www.w3.org/2000/svg">
<path d="M0.670919 0.559099C1.10064 0.201108 1.68339 0 2.29101 0C2.89863 0 3.48138 0.201108 3.9111 0.559099L12.0138 7.31138L20.1166 0.559099C20.5488 0.211254 21.1276 0.0187787 21.7284 0.0231296C22.3292 0.0274804 22.904 0.228309 23.3288 0.582361C23.7537 0.936413 23.9947 1.41536 23.9999 1.91605C24.0051 2.41673 23.7742 2.8991 23.3567 3.25925L15.254 10.0115L23.3567 16.7638C23.7742 17.124 24.0051 17.6063 23.9999 18.107C23.9947 18.6077 23.7537 19.0866 23.3288 19.4407C22.904 19.7947 22.3292 19.9956 21.7284 19.9999C21.1276 20.0043 20.5488 19.8118 20.1166 19.464L12.0138 12.7117L3.9111 19.464C3.47892 19.8118 2.90008 20.0043 2.29926 19.9999C1.69843 19.9956 1.1237 19.7947 0.698833 19.4407C0.273971 19.0866 0.0329765 18.6077 0.0277555 18.107C0.0225345 17.6063 0.253505 17.124 0.670919 16.7638L8.77366 10.0115L0.670919 3.25925C0.24133 2.90115 0 2.41553 0 1.90917C0 1.40282 0.24133 0.917199 0.670919 0.559099V0.559099Z" fill="white"/>
</svg>
